<?xml version="1.0" encoding="UTF-8" standalone="no"?>
<!-- Created with Inkscape (http://www.inkscape.org/) -->

<svg
   xmlns:dc="http://purl.org/dc/elements/1.1/"
   xmlns:cc="http://creativecommons.org/ns#"
   xmlns:rdf="http://www.w3.org/1999/02/22-rdf-syntax-ns#"
   xmlns:svg="http://www.w3.org/2000/svg"
   xmlns="http://www.w3.org/2000/svg"
   xmlns:sodipodi="http://sodipodi.sourceforge.net/DTD/sodipodi-0.dtd"
   xmlns:inkscape="http://www.inkscape.org/namespaces/inkscape"
   width="100"
   height="100.00002"
   id="svg2985"
   version="1.1"
   inkscape:version="0.48.4 r9939"
   sodipodi:docname="logo.svg">
  <defs
     id="defs2987" />
  <sodipodi:namedview
     id="base"
     pagecolor="#ffffff"
     bordercolor="#ffffff"
     borderopacity="0.0"
     inkscape:pageopacity="0.0"
     inkscape:pageshadow="0"
     inkscape:zoom="4.9780317"
     inkscape:cx="97.323439"
     inkscape:cy="50.620419"
     inkscape:document-units="px"
     inkscape:current-layer="layer1"
     showgrid="false"
     showguides="true"
     inkscape:guide-bbox="true"
     inkscape:window-width="1366"
     inkscape:window-height="715"
     inkscape:window-x="-8"
     inkscape:window-y="-8"
     inkscape:window-maximized="1"
     objecttolerance="20"
     inkscape:showpageshadow="true"
     borderlayer="false"
     fit-margin-top="0"
     fit-margin-left="0"
     fit-margin-right="0"
     fit-margin-bottom="0" />
  <metadata
     id="metadata2990">
    <rdf:RDF>
      <cc:Work
         rdf:about="">
        <dc:format>image/svg+xml</dc:format>
        <dc:type
           rdf:resource="http://purl.org/dc/dcmitype/StillImage" />
        <dc:title />
      </cc:Work>
    </rdf:RDF>
  </metadata>
  <g
     inkscape:label="Layer 1"
     inkscape:groupmode="layer"
     id="layer1"
     transform="translate(0,-952.36218)">
    <rect
       style="fill:#ff3b30;fill-opacity:1"
       id="rect2995"
       width="25"
       height="25"
       x="0"
       y="1027.3622" />
    <path
       style="fill:#ff3b30;fill-opacity:1;stroke:none"
       d="m 25,952.36218 c -0.401766,1.00441 0,25 0,25 l 25,25.00002 0,-50.00002 z"
       id="path3765"
       inkscape:connector-curvature="0"
       sodipodi:nodetypes="ccccc" />
    <path
       style="fill:#ff3b30;fill-opacity:1;stroke:none"
       d="m 100,977.36218 -25,0 -25,25.00002 50,0 z"
       id="path3767"
       inkscape:connector-curvature="0"
       sodipodi:nodetypes="ccccc" />
    <rect
       style="fill:#ff9500;fill-opacity:1;stroke:none"
       id="rect3769"
       width="25"
       height="25"
       x="75"
       y="1027.3622" />
    <path
       style="fill:#ff9500;fill-opacity:1;stroke:none"
       d="m 50,952.36218 0,50.00002 25,-25.00002 0,-25 z"
       id="path3771"
       inkscape:connector-curvature="0"
       sodipodi:nodetypes="ccccc" />
    <path
       style="fill:#ff9500;fill-opacity:1;stroke:none"
       d="m 0,977.36218 25,0 25,25.00002 -50,0 z"
       id="path3777"
       inkscape:connector-curvature="0"
       sodipodi:nodetypes="ccccc" />
    <rect
       style="fill:#99cc00;fill-opacity:1;stroke:none"
       id="rect3779"
       width="25"
       height="25"
       x="75"
       y="952.36218" />
    <path
       style="fill:#99cc00;fill-opacity:1;stroke:none"
       d="m 50,1002.3622 0,50 25,0 0,-25 z"
       id="path3781"
       inkscape:connector-curvature="0"
       sodipodi:nodetypes="ccccc" />
    <path
       style="fill:#99cc00;fill-opacity:1;stroke:none"
       d="m 0,1002.3622 0,25 25,0 25,-25 z"
       id="path3785"
       inkscape:connector-curvature="0"
       sodipodi:nodetypes="ccccc" />
    <path
       style="fill:#007aff;fill-opacity:1;stroke:none"
       d="m 25,1027.3622 0,25 25,0 0,-50 z"
       id="path3787"
       inkscape:connector-curvature="0"
       sodipodi:nodetypes="ccccc" />
    <path
       style="fill:#007aff;fill-opacity:1;stroke:none"
       d="m 50,1002.3622 50,0 0,25 -25,0 z"
       id="path3789"
       inkscape:connector-curvature="0"
       sodipodi:nodetypes="ccccc" />
    <rect
       style="fill:#007aff;fill-opacity:1;stroke:none"
       id="rect3791"
       width="25"
       height="25"
       x="0"
       y="952.36218" />
    <g
       style="font-size:39.99997711000000300px;font-style:normal;font-weight:normal;line-height:125%;letter-spacing:0px;word-spacing:0px;fill:#ffffff;fill-opacity:1;stroke:none;font-family:Sans"
       id="text3793">
      <path
         d="m 81.823595,967.84563 c -0.873058,1.68004 -1.827045,2.78403 -2.861963,3.31196 -1.035052,0.52805 -2.52903,0.76805 -4.481938,0.71999 -5.750979,-0.009 -11.744893,-0.0629 -17.98176,-0.16201 -6.236957,-0.0989 -11.906875,-0.18893 -17.009771,-0.26999 -7.511921,0.13806 -13.187841,1.44604 -17.027776,3.92395 -3.839957,2.47802 -6.563916,4.86599 -8.171887,7.1639 l 2.30397,3.45596 c 2.180964,-1.79993 4.730926,-3.13191 7.649896,-3.99595 2.918945,-0.86393 6.512893,-1.25993 10.781856,-1.18798 0.01953,5.18042 -0.323575,11.07545 -1.029321,17.68509 -0.705791,6.60975 -1.891553,13.09145 -3.557288,19.44505 -1.665772,6.3537 -3.928849,11.7368 -6.789238,16.1491 l 1.151985,2.592 c 1.208967,-0.063 2.570947,-0.297 4.085942,-0.702 1.51496,-0.405 3.272936,-1.035 5.273932,-1.89 0.878963,-0.7349 2.288941,-4.9889 4.22994,-12.7618 1.940946,-7.7729 3.026931,-20.2707 3.25796,-37.49348 l 0,-2.87997 c 2.918924,-0.003 6.008879,0.003 9.269872,0.018 3.260916,0.0151 6.890865,0.0571 10.889857,0.12599 -0.369047,6.07797 -0.675043,12.17388 -0.91799,18.28776 -0.243046,6.11399 -0.369043,12.49789 -0.377992,19.15179 0.09295,6.9929 1.166933,11.7988 3.221956,14.4178 2.054919,2.6189 4.532883,3.8609 7.433901,3.7259 2.498903,-0.048 4.916868,-0.816 7.253902,-2.304 2.3369,-1.4879 4.286873,-3.4079 5.849922,-5.7599 l -1.583978,-2.8799 c -1.017058,0.438 -2.043044,0.786 -3.077962,1.0439 -1.035054,0.258 -2.025039,0.39 -2.969957,0.396 -1.686043,0.063 -3.066024,-0.9269 -4.139947,-2.9699 -1.074044,-2.043 -1.662035,-5.5169 -1.763974,-10.4219 -0.01206,-5.3009 0.01194,-10.7188 0.072,-16.25377 0.05994,-5.53488 0.227936,-10.9168 0.503995,-16.14578 1.589917,0.0121 3.52189,-0.0119 5.795922,-0.072 2.273903,-0.0599 3.989878,-0.22795 5.147931,-0.50399 0.665918,-1.16993 1.313908,-2.78991 1.943972,-4.85994 0.62992,-2.06991 1.133913,-4.48188 1.511982,-7.2359 z"
         style="font-size:143.99992370999999000px;font-family:minion pro;-inkscape-font-specification:minion pro;fill:#ffffff"
         id="path3024" />
    </g>
  </g>
</svg>
