<?xml version="1.0" encoding="UTF-8" standalone="no"?>
<!-- Created with Inkscape (http://www.inkscape.org/) -->

<svg
   xmlns:dc="http://purl.org/dc/elements/1.1/"
   xmlns:cc="http://creativecommons.org/ns#"
   xmlns:rdf="http://www.w3.org/1999/02/22-rdf-syntax-ns#"
   xmlns:svg="http://www.w3.org/2000/svg"
   xmlns="http://www.w3.org/2000/svg"
   xmlns:sodipodi="http://sodipodi.sourceforge.net/DTD/sodipodi-0.dtd"
   xmlns:inkscape="http://www.inkscape.org/namespaces/inkscape"
   width="744.09448819"
   height="1052.3622047"
   id="svg3014"
   version="1.1"
   inkscape:version="0.48.4 r9939"
   sodipodi:docname="New document 3">
  <defs
     id="defs3016" />
  <sodipodi:namedview
     id="base"
     pagecolor="#ffffff"
     bordercolor="#ffffff"
     borderopacity="0.0"
     inkscape:pageopacity="0.0"
     inkscape:pageshadow="0"
     inkscape:zoom="0.49497475"
     inkscape:cx="375.76959"
     inkscape:cy="1109.2228"
     inkscape:document-units="px"
     inkscape:current-layer="layer1"
     showgrid="false"
     inkscape:window-width="1366"
     inkscape:window-height="715"
     inkscape:window-x="-8"
     inkscape:window-y="-8"
     inkscape:window-maximized="1" />
  <metadata
     id="metadata3019">
    <rdf:RDF>
      <cc:Work
         rdf:about="">
        <dc:format>image/svg+xml</dc:format>
        <dc:type
           rdf:resource="http://purl.org/dc/dcmitype/StillImage" />
        <dc:title></dc:title>
      </cc:Work>
    </rdf:RDF>
  </metadata>
  <g
     inkscape:label="Layer 1"
     inkscape:groupmode="layer"
     id="layer1">
    <path
       d="m 524.56061,7.0976672 c 0,31.4692598 9.03658,60.8301968 24.65214,85.6252148 l -92.87098,-3.184715 c 15.5457,-25.455454 24.5029,-55.37522 24.5029,-87.3874331 0,-92.7376279 -75.17885,-167.9196539 -167.91902,-167.9196539 -92.73889,0 -167.91868,75.182026 -167.91868,167.9196539 0,92.7376221 75.17979,167.9164761 167.91868,167.9164761 46.2364,0 88.11074,-18.68596 118.47821,-48.92008 25.12842,62.55433 80.19565,186.89139 97.43373,122.31766 l 43.64926,-121.80328 c 29.04977,28.6497 68.94596,46.3323 112.97309,46.3323 88.86073,0 160.89614,-72.035413 160.89614,-160.8961428 0,-88.8639052 -72.03541,-160.8993172 -160.89614,-160.8993172 -88.8639,0 -160.89933,72.035412 -160.89933,160.8993172 z M 999.55558,500.48966 C 1005.055,615.34244 957.7003,846.8677 957.7003,846.8677 c -4.16265,44.7428 -21.96598,-22.35648 -33.73953,-73.91352 -60.39839,95.84358 -148.42401,150.81993 -232.53785,182.5667 50.75536,12.24325 80.57348,40.37336 76.28703,59.51392 -7.81731,34.9269 -61.7955,-31.75189 -77.70317,22.4097 -5.76615,19.6305 -42.69034,18.3515 -51.44116,5.0668 -39.01984,-59.22839 -66.00892,13.8009 -94.55065,-15.484 -35.1747,-36.09061 -77.67137,-30.53149 -105.051,2.132 -26.75409,31.9156 -52.35562,-46.91962 -91.37545,12.3087 -8.754,13.285 -45.67663,14.5637 -51.44149,-5.0652 -15.90831,-54.16312 -69.88646,12.5157 -77.70409,-22.4113 -3.22091,-14.38989 12.83346,-33.86167 42.57097,-47.84365 C 180.0988,931.33994 115.93403,871.7545 71.547153,795.1322 60.16635,842.1335 45.960878,889.26754 42.300854,849.92509 c 0,0 -48.7775464,-238.46907 -41.5750841,-351.42946 0.0645195,-4.07058 0.16358552,-8.15387 0.29768,-12.24986 C 15.191455,54.420618 73.191901,-485.72274 142.19883,-431.14135 c 485.43464,383.956059 702.22676,-137.26637 725.2849,-16.85071 64.84367,338.643 106.41638,630.78541 127.00742,824.08114 4.7501,44.59547 6.29955,85.98401 5.06443,124.40058 z M 251.86303,5.3894176 c 0,-34.2983446 27.80255,-62.1002626 62.09964,-62.1002626 34.29581,0 62.10089,27.801918 62.10089,62.1002626 0,34.2951684 -27.80508,62.1002684 -62.10089,62.1002684 -34.29709,0 -62.09964,-27.8051 -62.09964,-62.1002684 z m 371.12831,2.4417193 c 0,-34.2983439 27.8051,-62.1002619 62.10028,-62.1002619 34.2983,0 62.10024,27.801918 62.10024,62.1002619 0,34.2983511 -27.80194,62.0970871 -62.10024,62.0970871 -34.29518,0 -62.10028,-27.798736 -62.10028,-62.0970871"
       id="path16"
       style="fill:#231f20;fill-opacity:1;fill-rule:nonzero;stroke:none"
       inkscape:connector-curvature="0"
       inkscape:export-xdpi="90"
       inkscape:export-ydpi="90" />
  </g>
</svg>
