<?xml version="1.0" encoding="UTF-8" standalone="no"?>
<!-- Created with Inkscape (http://www.inkscape.org/) -->

<svg
   xmlns:osb="http://www.openswatchbook.org/uri/2009/osb"
   xmlns:dc="http://purl.org/dc/elements/1.1/"
   xmlns:cc="http://creativecommons.org/ns#"
   xmlns:rdf="http://www.w3.org/1999/02/22-rdf-syntax-ns#"
   xmlns:svg="http://www.w3.org/2000/svg"
   xmlns="http://www.w3.org/2000/svg"
   xmlns:sodipodi="http://sodipodi.sourceforge.net/DTD/sodipodi-0.dtd"
   xmlns:inkscape="http://www.inkscape.org/namespaces/inkscape"
   width="694.29517"
   height="659.42682"
   id="svg2"
   version="1.1"
   inkscape:version="0.48.4 r9939"
   sodipodi:docname="teacher.svg">
  <defs
     id="defs4">
    <linearGradient
       id="linearGradient3888"
       osb:paint="solid">
      <stop
         style="stop-color:#ffffff;stop-opacity:1;"
         offset="0"
         id="stop3890" />
    </linearGradient>
  </defs>
  <sodipodi:namedview
     id="base"
     pagecolor="#ffffff"
     bordercolor="#666666"
     borderopacity="1.0"
     inkscape:pageopacity="0.0"
     inkscape:pageshadow="2"
     inkscape:zoom="1.4"
     inkscape:cx="480.35438"
     inkscape:cy="558.89006"
     inkscape:document-units="px"
     inkscape:current-layer="layer1"
     showgrid="false"
     inkscape:window-width="1366"
     inkscape:window-height="715"
     inkscape:window-x="-8"
     inkscape:window-y="-8"
     inkscape:window-maximized="1"
     fit-margin-top="0"
     fit-margin-left="0"
     fit-margin-right="0"
     fit-margin-bottom="0"
     showborder="true" />
  <metadata
     id="metadata7">
    <rdf:RDF>
      <cc:Work
         rdf:about="">
        <dc:format>image/svg+xml</dc:format>
        <dc:type
           rdf:resource="http://purl.org/dc/dcmitype/StillImage" />
        <dc:title />
      </cc:Work>
    </rdf:RDF>
  </metadata>
  <g
     inkscape:label="Layer 1"
     inkscape:groupmode="layer"
     id="layer1"
     style="display:inline"
     transform="translate(-27.138143,-367.3622)">
    <g
       transform="matrix(9.7188491,0,0,8.0957887,27.138143,-7492.9128)"
       id="layer1-7"
       inkscape:label="Layer 1"
       style="fill-rule:evenodd">
      <path
         inkscape:connector-curvature="0"
         id="rect2995"
         d="m 10.718825,1047.5084 c -0.436621,0.7751 -0.8750641,1.527 -1.3437594,2.25 l 1.1562584,2.5938 c 0.06018,0 0.126562,0 0.187501,0 l 0,-4.8438 z"
         style="fill:#ff3b30;fill-opacity:1;fill-rule:evenodd" />
      <path
         inkscape:connector-curvature="0"
         id="path3765"
         d="m 25.218927,987.13346 c -6.03249,0.11087 -10.866905,0.97394 -14.531352,2.59375 0.01192,0.77565 0.03125,3.3125 0.03125,3.3125 l 3.718776,3.71875 c 1.907364,-0.23264 4.013695,-0.31999 6.312544,-0.28125 0.0076,2.02286 -0.05329,4.19669 -0.156251,6.43749 l 6.531296,6.5313 c 0.118958,-3.1298 0.202705,-6.4117 0.250002,-9.93754 l 0,-2.875 c 2.632967,-0.003 5.432514,-0.0119 8.343808,0 l 0,-9.34375 c -3.584452,-0.0569 -7.348254,-0.10618 -10.500073,-0.15625 z"
         style="fill:#ff3b30;fill-opacity:1;fill-rule:evenodd;stroke:none" />
      <path
         inkscape:connector-curvature="0"
         id="path3767"
         d="m 60.719175,993.03971 -13.718846,13.71879 c -0.136272,2.7679 -0.295966,5.5371 -0.406253,8.3125 -0.03849,0.9681 -0.06113,1.987 -0.09375,2.9687 l 10.00007,0 c 0.01143,-1.6107 0.01355,-3.2127 0.03125,-4.8437 0.05994,-5.5349 0.223942,-10.8961 0.500003,-16.12504 1.589928,0.0121 3.507242,-0.0337 5.781291,-0.0937 2.273918,-0.0599 3.998225,-0.22395 5.156286,-0.5 0.506896,-0.89054 1.013888,-2.02542 1.50001,-3.4375 l -8.750061,0 z"
         style="fill:#ff3b30;fill-opacity:1;fill-rule:evenodd;stroke:none" />
      <path
         inkscape:connector-curvature="0"
         id="rect3769"
         d="m 60.719175,1043.0397 0,8.625 c 1.154298,-0.3823 2.320223,-0.9136 3.437524,-1.625 2.336917,-1.488 4.28073,-3.398 5.843791,-5.75 l -0.687505,-1.25 -8.59381,0 z"
         style="fill:#ff9500;fill-opacity:1;fill-rule:evenodd;stroke:none" />
      <path
         inkscape:connector-curvature="0"
         id="path3771"
         d="m 35.719,987.28971 0,9.34375 c 0.316208,10e-4 0.586765,-10e-4 0.906256,0 3.260939,0.0151 6.907306,0.0561 10.906327,0.125 -0.201521,3.31884 -0.367334,6.67044 -0.531254,10.00004 l 13.718846,-13.71879 0,-5.5 c -0.180071,7.3e-4 -0.342619,0.005 -0.531254,0 -5.751019,-0.009 -11.731965,-0.0572 -17.968876,-0.15625 -2.384725,-0.0378 -4.281113,-0.0585 -6.500045,-0.0937 z"
         style="fill:#ff9500;fill-opacity:1;fill-rule:evenodd;stroke:none" />
      <path
         inkscape:connector-curvature="0"
         id="path3777"
         d="M 5.3125372,993.03971 C 2.9529657,994.81123 1.1726072,996.52022 0,998.19596 l 2.3125162,3.46874 c 2.1809793,-1.79992 4.7373141,-3.13595 7.6563036,-3.99999 1.3471042,-0.39871 2.8341452,-0.70687 4.4687812,-0.90625 l -3.718776,-3.71875 -5.4062878,0 z m 15.2813568,9.87499 c -0.160716,3.4977 -0.444837,7.2213 -0.875006,11.25 -0.138521,1.2972 -0.324506,2.5876 -0.500003,3.875 l 7.437552,0 c 0.184299,-2.6768 0.352681,-5.5399 0.468753,-8.5937 l -6.531296,-6.5313 z"
         style="fill:#ff9500;fill-opacity:1;fill-rule:evenodd;stroke:none" />
      <path
         inkscape:connector-curvature="0"
         id="rect3779"
         d="m 67.531723,983.50846 c -0.873064,1.68004 -1.808845,2.78457 -2.84377,3.3125 -0.935082,0.47705 -2.284584,0.7119 -3.968778,0.71875 l 0,5.5 8.750061,0 c 0.152508,-0.443 0.28704,-0.91192 0.437503,-1.40625 0.629925,-2.06991 1.153189,-4.49597 1.531261,-7.25 l -3.906277,-0.875 z"
         style="fill:#99cc00;fill-opacity:1;fill-rule:evenodd;stroke:none" />
      <path
         inkscape:connector-curvature="0"
         id="path3781"
         d="m 46.281574,1028.6022 c -0.02183,1.8642 -0.05993,3.685 -0.0625,5.5937 0.09295,6.9929 1.163736,11.8186 3.218773,14.4375 2.054933,2.619 4.536514,3.8538 7.437552,3.7188 1.304232,-0.025 2.583639,-0.2702 3.843777,-0.6875 l 0,-8.625 -14.437601,-14.4375 z"
         style="fill:#99cc00;fill-opacity:1;fill-rule:evenodd;stroke:none" />
      <path
         inkscape:connector-curvature="0"
         id="path3785"
         d="m 19.218885,1018.0397 c -0.718701,5.2721 -1.723699,10.4558 -3.062522,15.5625 -0.530916,2.025 -1.128995,3.9534 -1.781262,5.7812 l 11.312579,-11.3125 c 0.386356,-2.985 0.71339,-6.3222 0.968757,-10.0312 l -7.437552,0 z"
         style="fill:#99cc00;fill-opacity:1;fill-rule:evenodd;stroke:none" />
      <path
         inkscape:connector-curvature="0"
         id="path3787"
         d="m 25.68768,1028.0709 -11.312579,11.3125 c -1.058928,2.9674 -2.277511,5.6774 -3.656276,8.125 l 0,4.8438 c 1.16327,-0.076 2.435437,-0.3027 3.875027,-0.6875 1.514972,-0.405 3.280277,-1.0513 5.281287,-1.9063 0.878969,-0.735 2.309017,-4.9771 4.25003,-12.75 0.618688,-2.4776 1.117559,-5.4997 1.562511,-8.9375 z"
         style="fill:#007aff;fill-opacity:1;fill-rule:evenodd;stroke:none" />
      <path
         inkscape:connector-curvature="0"
         id="path3789"
         d="m 46.500325,1018.0397 c -0.114274,3.4394 -0.176531,6.9569 -0.218751,10.5625 l 14.437601,14.4375 8.59381,0 -0.906256,-1.625 c -1.017064,0.438 -2.027595,0.7732 -3.062522,1.0312 -1.035061,0.258 -2.055096,0.4003 -3.000021,0.4063 -1.686054,0.063 -3.051098,-0.9258 -4.125029,-2.9688 -1.074051,-2.0429 -1.648072,-5.5325 -1.750012,-10.4375 -0.0085,-3.7388 0.0039,-7.5509 0.03125,-11.4062 l -10.00007,0 z"
         style="fill:#007aff;fill-opacity:1;fill-rule:evenodd;stroke:none" />
      <path
         inkscape:connector-curvature="0"
         id="rect3791"
         d="m 10.718825,989.72721 c -0.9089483,0.40026 -1.7675633,0.81969 -2.5312677,1.3125 -1.0397063,0.67094 -1.998942,1.34226 -2.8750201,2 l 5.4062878,0 0,-3.3125 z"
         style="fill:#007aff;fill-opacity:1;fill-rule:evenodd;stroke:none" />
    </g>
    <path
       sodipodi:type="arc"
       style="fill:#ffffff;fill-opacity:1;fill-rule:evenodd;stroke:#0ca6f2;stroke-width:0.49000001;stroke-linecap:round;stroke-linejoin:miter;stroke-miterlimit:4;stroke-opacity:0.99607843;stroke-dasharray:none"
       id="path3894"
       sodipodi:cx="177.14285"
       sodipodi:cy="419.86218"
       sodipodi:rx="72.14286"
       sodipodi:ry="68.214287"
       d="m 249.28571,419.86218 c 0,37.67371 -32.29946,68.21429 -72.14286,68.21429 -39.8434,0 -72.14286,-30.54058 -72.14286,-68.21429 0,-37.67371 32.29946,-68.21428 72.14286,-68.21428 39.8434,0 72.14286,30.54057 72.14286,68.21428 z"
       transform="matrix(1.1395844,0,0,1.2052149,41.814337,-56.161961)" />
    <path
       sodipodi:type="arc"
       style="fill:#ffffff;fill-opacity:1;fill-rule:evenodd;stroke:#0ca6f2;stroke-width:0.49000001;stroke-linecap:round;stroke-linejoin:miter;stroke-miterlimit:4;stroke-opacity:0.99607843;stroke-dasharray:none;display:inline"
       id="path3894-6"
       sodipodi:cx="177.14285"
       sodipodi:cy="419.86218"
       sodipodi:rx="72.14286"
       sodipodi:ry="68.214287"
       d="m 249.28571,419.86218 c 0,37.67371 -32.29946,68.21429 -72.14286,68.21429 -39.8434,0 -72.14286,-30.54058 -72.14286,-68.21429 0,-37.67371 32.29946,-68.21428 72.14286,-68.21428 39.8434,0 72.14286,30.54057 72.14286,68.21428 z"
       transform="matrix(1.1395844,0,0,1.2052149,364.82574,-56.161961)" />
    <path
       sodipodi:type="arc"
       style="fill:#0ca6f2;fill-opacity:0.99607843;stroke:none"
       id="path3805"
       sodipodi:cx="246.42857"
       sodipodi:cy="480.57648"
       sodipodi:rx="60"
       sodipodi:ry="54.642857"
       d="m 306.42857,480.57648 c 0,30.17841 -26.86291,54.64285 -60,54.64285 -33.13708,0 -60,-24.46444 -60,-54.64285 0,-30.17842 26.86292,-54.64286 60,-54.64286 33.13709,0 60,24.46444 60,54.64286 z"
       transform="matrix(1.0833333,0,0,1.1895425,-14.821441,-114.30402)" />
    <path
       sodipodi:type="arc"
       style="fill:#000000;fill-opacity:0.99470903;fill-rule:evenodd;stroke:#000000;stroke-width:0.49000001;stroke-linecap:round;stroke-linejoin:miter;stroke-miterlimit:4;stroke-opacity:1;stroke-dasharray:none"
       id="path5397"
       sodipodi:cx="61.619305"
       sodipodi:cy="410.41025"
       sodipodi:rx="17.172594"
       sodipodi:ry="12.626906"
       d="m 78.791899,410.41025 c 0,6.97365 -7.688433,12.6269 -17.172594,12.6269 -9.484162,0 -17.172594,-5.65325 -17.172594,-12.6269 0,-6.97365 7.688432,-12.62691 17.172594,-12.62691 9.484161,0 17.172594,5.65326 17.172594,12.62691 z"
       transform="matrix(0.85918966,0,0,1.168498,222.85625,-2.2618224)" />
    <path
       sodipodi:type="arc"
       style="fill:#0ca6f2;fill-opacity:0.99607843;stroke:none;display:inline"
       id="path3805-1"
       sodipodi:cx="246.42857"
       sodipodi:cy="480.57648"
       sodipodi:rx="60"
       sodipodi:ry="54.642857"
       d="m 306.42857,480.57648 c 0,30.17841 -26.86291,54.64285 -60,54.64285 -33.13708,0 -60,-24.46444 -60,-54.64285 0,-30.17842 26.86292,-54.64286 60,-54.64286 33.13709,0 60,24.46444 60,54.64286 z"
       transform="matrix(1.0833333,0,0,1.1895425,306.60715,-114.30396)" />
    <path
       sodipodi:type="arc"
       style="fill:#ffffff;fill-opacity:0.99607843;stroke:none"
       id="path3825"
       sodipodi:cx="371.07144"
       sodipodi:cy="485.93362"
       sodipodi:rx="4.6428571"
       sodipodi:ry="4.2857141"
       d="m 375.7143,485.93362 c 0,2.36694 -2.07868,4.28572 -4.64286,4.28572 -2.56418,0 -4.64286,-1.91878 -4.64286,-4.28572 0,-2.36693 2.07868,-4.28571 4.64286,-4.28571 2.56418,0 4.64286,1.91878 4.64286,4.28571 z"
       transform="matrix(0.86153847,0,0,0.93333336,-37.120882,24.824132)" />
    <path
       sodipodi:type="arc"
       style="fill:#000000;fill-opacity:0.99470903;fill-rule:evenodd;stroke:#000000;stroke-width:0.49000001;stroke-linecap:round;stroke-linejoin:miter;stroke-miterlimit:4;stroke-opacity:1;stroke-dasharray:none;display:inline"
       id="path5397-7"
       sodipodi:cx="61.619305"
       sodipodi:cy="410.41025"
       sodipodi:rx="17.172594"
       sodipodi:ry="12.626906"
       d="m 78.791899,410.41025 c 0,6.97365 -7.688433,12.6269 -17.172594,12.6269 -9.484162,0 -17.172594,-5.65325 -17.172594,-12.6269 0,-6.97365 7.688432,-12.62691 17.172594,-12.62691 9.484161,0 17.172594,5.65326 17.172594,12.62691 z"
       transform="matrix(0.85918966,0,0,1.168498,547.77161,-2.2613708)" />
    <path
       sodipodi:type="arc"
       style="fill:#ffffff;fill-opacity:0.99607843;stroke:none;display:inline"
       id="path3825-4"
       sodipodi:cx="371.07144"
       sodipodi:cy="485.93362"
       sodipodi:rx="4.6428571"
       sodipodi:ry="4.2857141"
       d="m 375.7143,485.93362 c 0,2.36694 -2.07868,4.28572 -4.64286,4.28572 -2.56418,0 -4.64286,-1.91878 -4.64286,-4.28572 0,-2.36693 2.07868,-4.28571 4.64286,-4.28571 2.56418,0 4.64286,1.91878 4.64286,4.28571 z"
       transform="matrix(0.86153847,0,0,0.93333336,287.79449,24.82412)" />
  </g>
</svg>
